<svg width="20" height="20" viewBox="0 0 20 20" fill="none" xmlns="http://www.w3.org/2000/svg">
<path d="M19.3066 2.28948H15.4926V0.920555C15.4926 0.567349 15.2014 0.281006 14.8423 0.281006C14.4832 0.281006 14.1921 0.567349 14.1921 0.920555V2.28948H5.79666V0.920555C5.79666 0.567349 5.50553 0.281006 5.14641 0.281006C4.7873 0.281006 4.49617 0.567349 4.49617 0.920555V2.28948H0.650286C0.291172 2.28948 0 2.57582 0 2.92903V19.3124C0 19.6656 0.291132 19.952 0.650286 19.952H19.3067C19.6658 19.952 19.9569 19.6656 19.9569 19.3124V2.92903C19.9569 2.57582 19.6658 2.28948 19.3066 2.28948ZM1.30053 18.6729V3.56862H4.49617V4.77864C4.49617 5.13185 4.7873 5.41819 5.14641 5.41819C5.50553 5.41819 5.79666 5.13185 5.79666 4.77864V3.56862H9.32818V18.6729H1.30053ZM18.6564 18.6729H10.6287V3.56862H14.192V4.77864C14.192 5.13185 14.4832 5.41819 14.8423 5.41819C15.2014 5.41819 15.4925 5.13185 15.4925 4.77864V3.56862H18.6563V18.6729H18.6564Z" fill="white"/>
</svg>
