<svg width="16" height="16" viewBox="0 0 16 16" fill="none" xmlns="http://www.w3.org/2000/svg">
<path d="M13.5547 0C12.6746 0 11.9436 0.650195 11.8165 1.49547L11.282 2.02996C10.3518 2.96023 8.98176 3.51562 7.61719 3.51562H4.10156C3.3377 3.51562 2.68641 4.00551 2.44453 4.6875H2.34375C1.05141 4.6875 0 5.73891 0 7.03125C0 8.32359 1.05141 9.375 2.34375 9.375H2.44453C2.62137 9.87359 3.01703 10.2693 3.51562 10.4461V13.4766C3.51562 14.4458 4.30422 15.2344 5.27348 15.2344C6.2427 15.2344 7.03125 14.4458 7.03125 13.4766V10.5469H7.61719C8.98172 10.5469 10.3517 11.1023 11.282 12.0325L11.8165 12.567C11.9436 13.4123 12.6746 14.0625 13.5547 14.0625C14.5239 14.0625 15.3125 13.2739 15.3125 12.3047V1.75781C15.3125 0.788555 14.5239 0 13.5547 0ZM2.34375 8.20312C1.69758 8.20312 1.17188 7.67742 1.17188 7.03125C1.17188 6.38508 1.69758 5.85938 2.34375 5.85938V8.20312ZM5.85938 13.4766C5.85938 13.7996 5.59652 14.0625 5.27344 14.0625C4.95035 14.0625 4.6875 13.7996 4.6875 13.4766V10.5469H5.85938V13.4766ZM7.03125 9.375H4.10156C3.77848 9.375 3.51562 9.11215 3.51562 8.78906V5.27344C3.51562 4.95035 3.77848 4.6875 4.10156 4.6875H7.03125V9.375ZM11.7969 10.912C10.807 10.0552 9.5343 9.52293 8.19922 9.40156L8.19926 4.6609C9.5343 4.53957 10.807 4.00727 11.7969 3.15051V10.912ZM14.1406 12.3047C14.1406 12.6278 13.8778 12.8906 13.5547 12.8906H13.5547C13.2316 12.8906 12.9688 12.6278 12.9688 12.3047V1.75781C12.9688 1.43473 13.2316 1.17188 13.5547 1.17188C13.8778 1.17188 14.1406 1.43473 14.1406 1.75781V12.3047Z" fill="white"/>
</svg>
