<svg width="20" height="20" viewBox="0 0 20 20" fill="none" xmlns="http://www.w3.org/2000/svg">
<path d="M1.81216 18.4269V13.1482C1.81216 12.8243 2.06498 12.5617 2.37686 12.5617H6.89451V10.8022C6.89451 10.4783 7.14734 10.2157 7.45921 10.2157H12.5416C12.8534 10.2157 13.1063 10.4783 13.1063 10.8022V14.3213H17.6239C17.9358 14.3213 18.1886 14.5839 18.1886 14.9078V18.4269H19.0357C19.3476 18.4269 19.6004 18.6895 19.6004 19.0134C19.6004 19.3373 19.3476 19.5999 19.0357 19.5999H0.965097C0.653218 19.5999 0.400391 19.3373 0.400391 19.0134C0.400391 18.6895 0.653218 18.4269 0.965097 18.4269H1.81216ZM8.02392 11.3887V18.4269H11.9769V11.3887H8.02392ZM2.94157 13.7348V18.4269H6.89451V13.7348H2.94157ZM13.1063 15.4943V18.4269H17.0592V15.4943H13.1063ZM8.68759 7.04964C8.13413 7.35185 7.56111 6.91368 7.66597 6.27872L7.91669 4.76044L6.85462 3.68519C6.40686 3.23188 6.63102 2.53046 7.24484 2.43782L8.71259 2.21631L9.36899 0.834931C9.64572 0.25256 10.3573 0.25723 10.6318 0.834931L11.2882 2.21631L12.7559 2.43782C13.3747 2.53121 13.5903 3.23552 13.1462 3.68519L12.0841 4.76044L12.3348 6.27872C12.4405 6.91881 11.8622 7.34943 11.3132 7.04964L10.0004 6.33281L8.68759 7.04964ZM9.73761 5.15103C9.90212 5.0612 10.0987 5.0612 10.2632 5.15103L11.076 5.59486L10.9207 4.65483C10.8893 4.46456 10.9501 4.27043 11.0832 4.13568L11.7407 3.46995L10.832 3.3328C10.6481 3.30504 10.4891 3.18506 10.4068 3.01196L10.0004 2.15669L9.59399 3.01196C9.51173 3.18506 9.35273 3.30504 9.1688 3.3328L8.26005 3.46995L8.91763 4.13568C9.05072 4.27043 9.11145 4.46456 9.08003 4.65483L8.9248 5.59486L9.73761 5.15103Z" fill="white"/>
</svg>
