<svg width="22" height="18" viewBox="0 0 22 18" fill="none" xmlns="http://www.w3.org/2000/svg">
<path d="M20.75 0.75H1.25C0.835156 0.75 0.5 1.08516 0.5 1.5V16.5C0.5 16.9148 0.835156 17.25 1.25 17.25H20.75C21.1648 17.25 21.5 16.9148 21.5 16.5V1.5C21.5 1.08516 21.1648 0.75 20.75 0.75ZM19.8125 15.5625H2.1875V14.6273L5.43359 10.7766L8.95156 14.9484L14.4242 8.46094L19.8125 14.85V15.5625ZM19.8125 12.5203L14.5672 6.3C14.4922 6.21094 14.3562 6.21094 14.2812 6.3L8.95156 12.6188L5.57656 8.61797C5.50156 8.52891 5.36562 8.52891 5.29062 8.61797L2.1875 12.2977V2.4375H19.8125V12.5203ZM6.125 7.6875C6.39585 7.6875 6.66405 7.63415 6.91428 7.5305C7.16452 7.42685 7.39189 7.27493 7.58341 7.08341C7.77493 6.89189 7.92685 6.66452 8.0305 6.41428C8.13415 6.16405 8.1875 5.89585 8.1875 5.625C8.1875 5.35415 8.13415 5.08595 8.0305 4.83572C7.92685 4.58548 7.77493 4.35811 7.58341 4.16659C7.39189 3.97507 7.16452 3.82315 6.91428 3.7195C6.66405 3.61585 6.39585 3.5625 6.125 3.5625C5.57799 3.5625 5.05339 3.7798 4.66659 4.16659C4.2798 4.55339 4.0625 5.07799 4.0625 5.625C4.0625 6.17201 4.2798 6.69661 4.66659 7.08341C5.05339 7.4702 5.57799 7.6875 6.125 7.6875ZM6.125 4.96875C6.48828 4.96875 6.78125 5.26172 6.78125 5.625C6.78125 5.98828 6.48828 6.28125 6.125 6.28125C5.76172 6.28125 5.46875 5.98828 5.46875 5.625C5.46875 5.26172 5.76172 4.96875 6.125 4.96875Z" fill="#999999"/>
</svg>
