<svg width="20" height="10" viewBox="0 0 20 10" fill="none" xmlns="http://www.w3.org/2000/svg">
<path d="M17.0703 1.76648H15.1126C14.8461 1.76648 14.5882 1.80289 14.3427 1.86984C13.8584 0.917813 12.8696 0.263672 11.7303 0.263672H8.26973C7.13039 0.263672 6.14164 0.917813 5.65734 1.86984C5.41184 1.80289 5.15387 1.76648 4.88742 1.76648H2.92969C1.31426 1.76648 0 3.08074 0 4.69617V7.82578C0 8.79504 0.788555 9.58359 1.75781 9.58359H18.2422C19.2114 9.58359 20 8.79504 20 7.82578V4.69617C20 3.08074 18.6857 1.76648 17.0703 1.76648ZM5.34004 3.19344V8.41176H1.75781C1.43473 8.41176 1.17188 8.14891 1.17188 7.82582V4.69621C1.17188 3.72695 1.96043 2.9384 2.92969 2.9384H4.88742C5.04648 2.9384 5.20051 2.96 5.34715 2.9998C5.34293 3.06391 5.34004 3.12836 5.34004 3.19344ZM13.4881 8.41176H6.51191V3.1934C6.51191 2.22414 7.30047 1.43559 8.26973 1.43559H11.7303C12.6995 1.43559 13.4881 2.22414 13.4881 3.1934V8.41176ZM18.8281 7.82582C18.8281 8.14891 18.5653 8.41176 18.2422 8.41176H14.66V3.1934C14.66 3.12828 14.6571 3.06383 14.6529 2.99977C14.7995 2.96 14.9535 2.93836 15.1126 2.93836H17.0703C18.0396 2.93836 18.8281 3.72691 18.8281 4.69617V7.82582Z" fill="white"/>
</svg>
