<svg width="24" height="24" viewBox="0 0 24 24" fill="none" xmlns="http://www.w3.org/2000/svg">
<path d="M17.1429 15.0857H16.0457L15.6343 14.6743C17.0058 13.1657 17.8286 11.1086 17.8286 8.91429C17.8286 3.97714 13.8514 0 8.91429 0C3.97714 0 0 3.97714 0 8.91429C0 13.8514 3.97714 17.8286 8.91429 17.8286C11.1086 17.8286 13.1657 17.0057 14.6743 15.6343L15.0857 16.0457V17.1428L21.9429 24L24 21.9429L17.1429 15.0857ZM8.91429 15.0857C5.48571 15.0857 2.74286 12.3429 2.74286 8.91429C2.74286 5.48571 5.48571 2.74286 8.91429 2.74286C12.3429 2.74286 15.0857 5.48571 15.0857 8.91429C15.0857 12.3429 12.3429 15.0857 8.91429 15.0857Z" fill="#999999"/>
</svg>
