<svg width="34" height="30" viewBox="0 0 34 30" fill="none" xmlns="http://www.w3.org/2000/svg">
<path d="M16.9997 11.6667L15.433 15.1L11.9997 16.6667L15.433 18.2333L16.9997 21.6667L18.5663 18.2333L21.9997 16.6667L18.5663 15.1L16.9997 11.6667ZM30.333 3.33333H25.0497L21.9997 0H11.9997L8.94967 3.33333H3.66634C1.83301 3.33333 0.333008 4.83333 0.333008 6.66667V26.6667C0.333008 28.5 1.83301 30 3.66634 30H30.333C32.1663 30 33.6663 28.5 33.6663 26.6667V6.66667C33.6663 4.83333 32.1663 3.33333 30.333 3.33333ZM30.333 26.6667H3.66634V6.66667H10.4163L11.3997 5.58333L13.4663 3.33333H20.533L22.5997 5.58333L23.583 6.66667H30.333V26.6667ZM16.9997 8.33333C12.3997 8.33333 8.66634 12.0667 8.66634 16.6667C8.66634 21.2667 12.3997 25 16.9997 25C21.5997 25 25.333 21.2667 25.333 16.6667C25.333 12.0667 21.5997 8.33333 16.9997 8.33333ZM16.9997 21.6667C14.2497 21.6667 11.9997 19.4167 11.9997 16.6667C11.9997 13.9167 14.2497 11.6667 16.9997 11.6667C19.7497 11.6667 21.9997 13.9167 21.9997 16.6667C21.9997 19.4167 19.7497 21.6667 16.9997 21.6667Z" fill="#999999"/>
</svg>
